<?xml version="1.0" encoding="iso-8859-1"?>
<!-- Generator: Adobe Illustrator 19.0.0, SVG Export Plug-In . SVG Version: 6.00 Build 0)  -->
<svg xmlns="http://www.w3.org/2000/svg" xmlns:xlink="http://www.w3.org/1999/xlink" version="1.1" id="Capa_1" x="0px" y="0px" viewBox="0 0 511.999 511.999" style="enable-background:new 0 0 511.999 511.999;" xml:space="preserve">
<g>
	<path style="fill:#F2CA5A;" d="M258.547,394.083c-5.399,1.084-10.623,2.174-15.485,3.373l0.554,41.14   c4.398,2.652,9.364,5.527,14.932,8.661c-0.185,0.104-0.363,0.205-0.55,0.31c6.14-3.452,11.551-6.586,16.289-9.461l0.544-40.452   C269.746,396.379,264.241,395.227,258.547,394.083z"/>
	<path style="fill:#F2CA5A;" d="M275.342,359.697l0.545-40.478c-5.445-1.065-11.251-2.009-17.332-2.883   c-5.784,0.832-11.334,1.724-16.549,2.726l0.55,40.828c5.216,1.232,11.042,2.463,17.538,3.755c-0.525-0.104-1.03-0.207-1.547-0.311   C264.758,362.089,270.336,360.895,275.342,359.697z"/>
	<path style="fill:#F2CA5A;" d="M258.547,479.949c0.073-0.028,0.148-0.059,0.221-0.086c-5.045,1.92-9.948,3.651-14.526,5.176   l0.068,5.018c0.108,8.008,6.63,14.443,14.639,14.443c8.008,0,14.531-6.435,14.639-14.443l0.064-4.754   C268.91,483.733,263.812,481.949,258.547,479.949z"/>
</g>
<g>
	<path style="fill:#DB8128;" d="M214.497,294.832c12.761-4.106,27.831-6.713,44.051-8.927c-6.98-0.953-14.17-1.834-21.486-2.729   c-25.004-3.059-50.86-6.221-69.215-12.787c-23.103-8.264-22.788-17.802-22.637-22.386c0.345-10.482,18.699,2.247,49.086-11.142   c37.22-16.4,29.543-29.263,16.958-37.062c-10.082-6.248-22.162-8.625-34.048-7.344c-44.888,4.838-61.92,22.244-62.987,54.585   c-0.429,13.005,3.881,24.312,12.807,33.608c7.119,7.414,16.967,13.303,30.105,18.004c10.029,3.588,21.342,6.233,33.242,8.37   C196.484,302.114,204.525,298.041,214.497,294.832z"/>
	<path style="fill:#DB8128;" d="M257.998,447.567c0.186-0.105,0.364-0.206,0.55-0.31c-29.283-16.486-42.021-25.817-42.049-33.094   c-0.011-2.625-0.025-6.594,9.503-11.088c8.261-3.897,19.937-6.461,32.546-8.993c-1.543-0.31-3.099-0.619-4.666-0.931   c-16.692-3.317-33.936-6.751-48.031-13.581c-16.693,10.377-20.397,24.312-20.357,34.707c0.072,18.496,13.37,35.345,39.572,50.257   C234.686,459.918,246.818,453.851,257.998,447.567z"/>
	<path style="fill:#DB8128;" d="M326.721,307.021c-13.825,2.483-28.447,4.28-42.814,6.037c-8.731,1.068-17.274,2.114-25.359,3.277   c13.002,1.868,24.819,4.038,34.303,7.088c4.707,1.514,17.212,5.538,17.212,12.586c0,14.511-15.222,20.046-51.515,27.325   c0.517,0.104,1.022,0.206,1.547,0.311c15.614,3.103,31.76,6.31,44.541,12.338c2.406,1.135,4.597,2.337,6.609,3.589   c0.233-0.113,0.473-0.219,0.704-0.334c24.067-11.942,29.118-30.099,29.118-43.227C341.067,324.364,336.252,314.676,326.721,307.021   z"/>
	<path style="fill:#DB8128;" d="M299.539,468.092c-2.243-1.047-4.781-2.246-7.509-3.556c-6.503,3.702-13.789,7.285-21.88,10.744   c-3.903,1.668-7.793,3.223-11.603,4.67c12.526,4.76,24.14,8.316,32.145,10.571c6.149,1.732,12.641-1.354,14.998-7.136l0,0   C308.086,477.505,305.405,470.829,299.539,468.092z"/>
</g>
<g>
	<path style="fill:#FFAE47;" d="M322.798,236.861c30.387,13.389,48.741,0.66,49.086,11.142c0.151,4.584,0.466,14.12-22.637,22.386   c-18.356,6.566-44.21,9.73-69.215,12.787c-24.317,2.975-47.284,5.784-65.537,11.657c-25.525,8.213-38.468,22.068-38.468,41.177   c0,13.128,5.052,31.285,29.118,43.227c14.222,7.058,31.768,10.544,48.736,13.915c14.368,2.854,27.94,5.551,37.212,9.925   c9.528,4.494,9.514,8.461,9.503,11.087c-0.028,7.322-12.919,16.722-42.599,33.404c-14.35,8.066-30.29,15.786-40.442,20.523   c-5.866,2.738-8.547,9.415-6.151,15.293l0,0c2.356,5.782,8.848,8.867,14.998,7.136c10.441-2.94,27.01-8.087,43.748-15.242   c40.687-17.391,61.362-37.914,61.451-61c0.045-11.647-4.597-27.746-26.966-38.294c-12.781-6.028-28.928-9.236-44.541-12.338   c-37.419-7.434-53.062-12.917-53.062-27.635c0-7.048,12.505-11.072,17.212-12.586c15.381-4.949,36.89-7.579,59.662-10.366   c26.733-3.27,54.375-6.651,76.056-14.407c13.138-4.7,22.986-10.589,30.105-18.003c8.926-9.296,13.235-20.602,12.807-33.608   c-1.066-32.341-18.098-49.747-62.987-54.585c-11.886-1.281-23.966,1.096-34.048,7.344   C293.256,207.598,285.579,220.46,322.798,236.861z"/>
	<path style="fill:#FFAE47;" d="M239.261,116.159c-11.189,0.626-25.682-0.67-32.183-10.21   c-11.337-16.636-37.947-68.583-91.19-50.753c-58.978,19.75-101.542,76.196-97.419,91.853s49.296,5.096,49.296,5.096   s24.02,29.392,59.386,10.029c0,0,38.841,29.459,60.501-8.59c0,0,31.133,12.6,51.978-10.02L239.261,116.159z"/>
</g>
<g>
	<path style="fill:#F4932A;" d="M207.078,105.949c-10.789-15.831-35.41-63.634-83.648-52.859   c30.997,7.577,49.009,39.292,55.587,52.859c13.729,28.313,49.424,38.242,60.613,37.615l-0.369-27.407   C228.073,116.785,213.579,115.488,207.078,105.949z"/>
</g>
<path style="fill:#FFAE47;" d="M396.081,55.196c-53.243-17.83-79.852,34.117-91.19,50.753c-5.397,7.919-16.306,10.156-26.257,10.33  l-0.439,32.581c20.347,15.157,46.122,4.724,46.122,4.724c21.662,38.048,60.502,8.59,60.502,8.59  c35.366,19.362,59.386-10.029,59.386-10.029s45.174,10.561,49.296-5.096C497.623,131.392,455.059,74.947,396.081,55.196z"/>
<path style="fill:#F4932A;" d="M396.081,55.196c-21.983-7.361-39.421-2.823-53.123,6.207c7.618-0.514,15.961,0.491,25.086,3.547  c57.298,19.187,99.098,73.003,97.654,90.412c12.274,0.891,25.647-0.128,27.803-8.313C497.623,131.392,455.059,74.947,396.081,55.196  z"/>
<circle style="fill:#F2CA5A;" cx="258.949" cy="54.876" r="47.378"/>
<path style="fill:#FFAE47;" d="M258.948,7.501c-4.875,0-9.577,0.738-14.002,2.105c19.329,5.972,33.373,23.98,33.373,45.27  s-14.044,39.298-33.373,45.27c4.426,1.367,9.128,2.105,14.002,2.105c26.164,0,47.375-21.211,47.375-47.375  S285.112,7.501,258.948,7.501z"/>
<path style="fill:#F2CA5A;" d="M258.948,102.251c-7.123,0-13.872-1.582-19.933-4.398l2.516,185.87  c5.775,0.71,11.464,1.423,17.017,2.181c5.809-0.794,11.766-1.537,17.819-2.28l2.514-185.771  C272.82,100.67,266.07,102.251,258.948,102.251z"/>
<g>
	<path style="fill:#FFAE47;" d="M258.547,394.083c-0.029,0.006-0.058,0.012-0.087,0.018l-0.553,52.793   c0.218,0.123,0.421,0.24,0.641,0.363c-0.185,0.104-0.363,0.205-0.55,0.31c6.14-3.452,11.551-6.586,16.289-9.461l0.544-40.452   C269.746,396.379,264.241,395.227,258.547,394.083z"/>
	<path style="fill:#FFAE47;" d="M258.607,363.347c0.494,0.099,0.985,0.198,1.488,0.298   C259.589,363.544,259.103,363.446,258.607,363.347L258.607,363.347z"/>
	<path style="fill:#FFAE47;" d="M259.275,316.442l-0.668,46.879c6.186-1.241,11.746-2.431,16.735-3.625l0.545-40.478   C270.66,318.197,265.092,317.287,259.275,316.442z"/>
	<path style="fill:#FFAE47;" d="M261.82,102.16l-2.456,181.465v2.28c5.809-0.794,10.95-1.537,17.003-2.28l2.514-185.771   C273.642,100.288,267.886,101.795,261.82,102.16z"/>
</g>
<path d="M473.909,97.508c-12.454-13.193-38.817-37.159-75.447-49.425c-23.304-7.804-44.824-4.4-63.964,10.118  c-15.314,11.614-25.562,27.619-32.343,38.208c-1.323,2.066-2.466,3.852-3.465,5.316c-2.512,3.688-7.385,5.516-12.447,6.375  l0.077-5.693c16.422-9.495,27.504-27.238,27.504-47.531C313.824,24.617,289.207,0,258.948,0c-30.259,0-54.876,24.617-54.876,54.876  c0,20.294,11.082,38.037,27.504,47.531l0.085,6.306c-6.965-0.322-14.911-1.894-18.384-6.989c-0.996-1.463-2.139-3.248-3.463-5.314  c-6.781-10.591-17.029-26.595-32.342-38.209c-19.142-14.519-40.663-17.921-63.966-10.119c-9.206,3.084-18.441,7.164-27.452,12.13  c-3.629,1.999-4.948,6.562-2.948,10.19c2,3.628,6.563,4.95,10.19,2.948c8.221-4.531,16.624-8.246,24.975-11.044  c42.728-14.31,66.266,22.446,78.91,42.192c1.385,2.163,2.581,4.031,3.7,5.672c5.74,8.423,16.369,13.051,30.982,13.569l0.226,16.77  c-16.917,15.641-40.605,6.52-41.62,6.118c-3.486-1.411-7.474-0.024-9.333,3.243c-4.931,8.66-10.933,13.619-18.348,15.161  c-14.956,3.103-30.957-8.728-31.102-8.836c-2.354-1.786-5.542-2.023-8.135-0.603c-29.287,16.038-49.166-7.225-49.976-8.196  c-1.813-2.217-4.731-3.207-7.516-2.557c-0.107,0.025-10.792,2.5-21.828,3.14c-14.389,0.833-18.306-2.076-18.505-2.833  c-0.411-1.81,1.566-9.505,10.3-21.733c8.926-12.5,21.558-25.247,35.565-35.893c3.299-2.506,3.94-7.213,1.434-10.511  c-2.506-3.298-7.211-3.941-10.512-1.433c-32.446,24.659-55.458,57.579-51.297,73.383c2.746,10.431,14.148,15.141,33.882,13.998  c7.946-0.46,15.588-1.74,20.137-2.62c3.175,3.027,8.557,7.462,15.758,10.866c10.358,4.896,26.424,8.559,45.643-0.364  c5.955,3.654,17.814,9.71,31.014,9.709c2.653-0.001,5.365-0.245,8.091-0.804c10.04-2.058,18.482-7.865,25.159-17.288  c8.794,2.271,25.701,4.735,41.439-3.768l0.454,33.524c0.056,4.143,3.468,7.458,7.602,7.399c4.143-0.056,7.455-3.46,7.398-7.602  l-1.132-83.638c0.233,0.053,0.47,0.09,0.704,0.14c0.462,0.1,0.927,0.19,1.393,0.278c0.472,0.089,0.943,0.178,1.418,0.254  c0.559,0.09,1.124,0.164,1.689,0.237c0.384,0.049,0.767,0.105,1.152,0.147c0.766,0.083,1.539,0.143,2.314,0.193  c0.197,0.013,0.393,0.034,0.59,0.045c1.003,0.055,2.012,0.087,3.029,0.087c1.016,0,2.025-0.033,3.029-0.087  c0.197-0.011,0.393-0.032,0.59-0.045c0.775-0.051,1.548-0.111,2.314-0.193c0.385-0.041,0.768-0.097,1.152-0.147  c0.565-0.073,1.13-0.147,1.689-0.237c0.475-0.076,0.946-0.165,1.418-0.254c0.466-0.088,0.931-0.178,1.393-0.278  c0.234-0.05,0.471-0.087,0.704-0.14l-2.282,168.613c-0.961,0.12-1.901,0.239-2.83,0.358c-0.583,0.074-1.163,0.149-1.743,0.224  c-0.645,0.083-1.286,0.167-1.921,0.25c-1.101,0.144-2.198,0.29-3.291,0.436c-0.207,0.028-0.415,0.055-0.622,0.083  c-0.909-0.123-1.822-0.242-2.734-0.362c-0.646-0.085-1.287-0.172-1.935-0.256c-1.651-0.215-3.3-0.425-4.933-0.631l-0.774-57.169  c-0.056-4.108-3.403-7.399-7.498-7.399c-0.034,0-0.069,0-0.104,0.001c-4.143,0.056-7.455,3.46-7.398,7.602l0.746,55.113  c-23.306-2.862-46.932-5.967-63.541-11.908c-10.536-3.769-14.743-7.414-16.418-9.809c-0.664-0.95-0.992-1.786-1.146-2.612  c1.1-0.017,2.441,0.035,3.612,0.067c8.602,0.238,23.008,0.637,40.901-7.246c20.916-9.217,31.007-18.499,31.757-29.214  c0.382-5.462-1.714-13.554-13.872-21.089c-11.176-6.927-24.958-9.918-38.804-8.426c-46.948,5.06-68.438,24.119-69.68,61.796  c-0.498,15.102,4.514,28.24,14.894,39.051c7.941,8.27,18.732,14.77,32.989,19.871c6.224,2.226,13.238,4.217,21.211,6.022  c-4.487,6.557-7.289,14.546-7.289,24.274c0,18.178,8.405,33.64,23.91,44.427c-11.755,11.146-14.481,24.13-14.444,33.87  c0.071,18.332,10.873,35.013,32.126,49.707c-6.402,5.31-8.908,14.23-5.66,22.201c3.097,7.598,10.486,12.294,18.439,12.294  c1.83,0,3.692-0.249,5.537-0.769c2.69-0.758,5.723-1.643,9.009-2.651c2.373,9.676,11.156,16.911,21.505,16.911  c10.269,0,18.996-7.122,21.45-16.685c3.09,0.942,5.877,1.753,8.262,2.424c1.846,0.52,3.706,0.769,5.537,0.769  c7.953,0,15.344-4.697,18.44-12.294c3.251-7.975,0.739-16.903-5.673-22.211c21.277-14.716,32.067-31.352,32.139-49.697  c0.033-8.401-2.175-22.085-14.475-33.848c15.524-10.789,23.941-26.259,23.941-44.449c0-9.075-2.448-17.192-7.27-24.276  c7.436-1.685,14.562-3.649,21.192-6.02c2.753-0.985,5.413-2.037,7.905-3.127c3.796-1.66,5.527-6.083,3.868-9.879  c-1.66-3.796-6.084-5.528-9.879-3.868c-2.179,0.953-4.518,1.877-6.948,2.747c-9.578,3.427-20.491,5.975-32.032,8.048  c-0.003,0.001-0.006,0.001-0.009,0.001c-3.433,0.616-6.915,1.19-10.43,1.73c-0.01,0.002-0.02,0.003-0.029,0.005  c-1.721,0.265-3.451,0.521-5.185,0.771c-0.061,0.009-0.122,0.018-0.184,0.026c-1.672,0.241-3.35,0.475-5.03,0.704  c-0.119,0.016-0.237,0.033-0.356,0.049c-1.618,0.22-3.239,0.435-4.859,0.646c-0.171,0.022-0.341,0.045-0.512,0.067  c-1.573,0.205-3.148,0.405-4.719,0.603c-0.207,0.026-0.415,0.053-0.622,0.079c-1.572,0.198-3.142,0.392-4.708,0.585  c-0.194,0.024-0.387,0.048-0.581,0.072c-1.733,0.214-3.463,0.425-5.184,0.636c-1.828,0.224-3.646,0.447-5.455,0.669  c-0.48,0.059-0.956,0.118-1.437,0.177c-4.048,0.501-8.037,1.006-11.951,1.528c-0.228,0.03-0.456,0.061-0.684,0.091  c-6.625,0.89-13.013,1.837-19.048,2.909c-0.021,0.004-0.043,0.008-0.064,0.012c-1.217,0.216-2.418,0.438-3.606,0.665  c-0.053,0.01-0.108,0.02-0.16,0.03c-0.006,0.001-0.011,0.003-0.016,0.004c-6.777,1.303-13.057,2.79-18.628,4.584  c-6.707,2.158-22.415,7.211-22.415,19.726c0,21.102,22.271,27.583,56.501,34.472c0.848,0.171,1.714,0.345,2.6,0.521l0,0  c0.001,0,0.003,0,0.004,0.001h0.002c0.001,0,0.001,0,0.002,0c4.739,0.942,9.529,1.893,14.238,2.928  c10.365,2.278,20.345,4.962,28.558,8.835c1.01,0.476,2.002,0.979,2.971,1.504c0.053,0.029,0.102,0.059,0.155,0.088  c0.916,0.5,1.811,1.019,2.677,1.556c11.232,6.957,16.908,16.46,16.862,28.333c-0.061,15.598-11.943,30.2-35.372,43.565  c-0.137,0.067-0.276,0.125-0.41,0.201c-4.63,2.635-9.718,5.225-15.177,7.732c-0.369,0.169-0.743,0.338-1.116,0.506  c-0.563,0.255-1.126,0.51-1.697,0.764c-1.029,0.456-2.069,0.91-3.128,1.363c-0.949,0.406-1.896,0.803-2.843,1.195  c-0.667,0.276-1.346,0.552-2.027,0.828c-0.239,0.097-0.479,0.196-0.718,0.292c-1.79,0.72-3.625,1.437-5.49,2.147  c-0.006,0.002-0.013,0.003-0.019,0.006l-0.004,0.001c-4.622,1.759-9.409,3.465-14.228,5.069c-0.01,0.003-0.018,0.009-0.028,0.012  c-6.623,2.203-12.622,4-17.476,5.367c-2.466,0.697-5.106-0.513-6.017-2.746c-0.889-2.181,0.133-4.617,2.378-5.665  c2.094-0.978,4.669-2.192,7.568-3.586c0.004-0.002,0.009-0.003,0.013-0.005c0.112-0.054,0.233-0.112,0.347-0.167  c0.014-0.007,0.028-0.013,0.042-0.02c4.392-2.11,9.796-4.761,15.585-7.719c0.045-0.023,0.09-0.046,0.134-0.069  c0.823-0.421,1.654-0.848,2.491-1.281c0.169-0.087,0.337-0.174,0.506-0.262c0.808-0.419,1.619-0.841,2.435-1.269  c0.097-0.051,0.193-0.101,0.29-0.151c0.919-0.482,1.841-0.97,2.766-1.463c0.113-0.06,0.226-0.121,0.339-0.182  c0.768-0.41,1.537-0.823,2.306-1.238c0.252-0.136,0.502-0.272,0.754-0.409c0.665-0.361,1.329-0.724,1.992-1.088  c0.246-0.135,0.492-0.27,0.738-0.406c0.882-0.487,1.762-0.976,2.636-1.467c0.001-0.001,0.003-0.001,0.004-0.002l0.477-0.27  c0.645-0.363,1.286-0.724,1.91-1.077c30.381-17.18,43.988-27.014,44.033-38.563c0.023-5.623-1.599-12.147-13.804-17.903  c-6.035-2.845-13.466-4.983-21.628-6.871c-0.081-0.018-0.161-0.037-0.242-0.056c-2.68-0.618-5.436-1.21-8.25-1.791  c-0.009-0.002-0.018-0.004-0.027-0.006c-1.361-0.281-2.735-0.56-4.121-0.838c-0.001,0-0.001,0-0.001,0  c-0.041-0.008-0.083-0.017-0.123-0.025c-1.317-0.264-2.643-0.528-3.978-0.793c-0.195-0.039-0.386-0.077-0.582-0.116  c-6.074-1.207-12.226-2.429-18.242-3.824c-0.003-0.001-0.006-0.001-0.009-0.002c-10.031-2.326-19.684-5.133-27.971-9.148  c-0.003-0.001-0.005-0.002-0.008-0.003c-0.209-0.101-0.425-0.197-0.633-0.299c-16.557-8.215-24.951-20.499-24.951-36.509  c0-9.157,3.708-16.757,11.233-22.933c0.101-0.073,0.211-0.129,0.309-0.207c4.69-3.767,10.843-7.032,18.317-9.733  c0.089-0.032,0.179-0.064,0.268-0.095c1.022-0.366,2.065-0.723,3.138-1.068c0.992-0.319,2.006-0.626,3.031-0.928  c0.3-0.089,0.604-0.174,0.906-0.261c0.783-0.225,1.573-0.445,2.373-0.66c0.277-0.075,0.553-0.15,0.832-0.223  c2.218-0.583,4.497-1.134,6.836-1.653c0.072-0.016,0.144-0.032,0.216-0.048c7.374-1.629,15.314-2.967,23.631-4.17  c0.238-0.034,0.473-0.067,0.71-0.101c0.859-0.123,1.723-0.244,2.59-0.364c0.549-0.076,1.101-0.153,1.644-0.227  c0.002,0,0.005-0.001,0.007-0.001c0.076-0.01,0.152-0.02,0.227-0.031c0.885-0.121,1.773-0.24,2.665-0.359  c0.462-0.061,0.925-0.123,1.391-0.184c1.026-0.134,2.057-0.268,3.093-0.401c0.404-0.052,0.806-0.104,1.215-0.156  c1.023-0.13,2.052-0.259,3.084-0.388c0.629-0.079,1.267-0.158,1.914-0.238c0.735-0.091,1.471-0.182,2.209-0.273  c0.63-0.078,1.261-0.155,1.911-0.235c0.003,0,0.005-0.001,0.008-0.001c1.215-0.149,2.432-0.298,3.656-0.448  c25.409-3.108,51.685-6.321,70.831-13.17c13.154-4.706,28.181-12.334,27.607-29.694c-0.184-5.576-3.274-9.63-8.478-11.121  c-3.042-0.872-6.396-0.778-10.646-0.661c-8.283,0.23-19.632,0.544-34.435-5.979c-21.746-9.582-22.793-15.85-22.841-16.533  c-0.1-1.421,1.637-4.084,6.81-7.289c8.349-5.175,18.752-7.399,29.292-6.262c32.97,3.553,55.159,12.969,56.292,47.374  c0.359,10.907-3.247,20.382-10.721,28.165c-2.868,2.988-2.772,7.737,0.216,10.606c2.988,2.87,7.736,2.772,10.606-0.215  c10.38-10.811,15.392-23.949,14.893-39.051c-1.241-37.677-22.732-56.737-69.68-61.796c-13.845-1.49-27.626,1.5-38.803,8.426  c-12.158,7.534-14.254,15.627-13.872,21.089c0.75,10.715,10.842,19.997,31.757,29.214c17.898,7.885,32.301,7.486,40.901,7.246  c1.17-0.032,2.473-0.08,3.612-0.067c-0.153,0.824-0.482,1.661-1.146,2.612c-1.674,2.394-5.882,6.04-16.418,9.809  c-16.416,5.872-39.688,8.973-62.739,11.809l1.54-113.818c13.941,5.221,27.852,3.111,35.544,1.133  c6.678,9.427,15.121,15.235,25.162,17.293c2.727,0.559,5.437,0.804,8.092,0.804c13.199,0,25.06-6.055,31.015-9.709  c19.217,8.923,35.284,5.26,45.642,0.364c7.2-3.403,12.583-7.838,15.758-10.866c4.55,0.88,12.191,2.16,20.137,2.62  c19.743,1.139,31.135-3.568,33.882-13.999C504.247,135.694,489.177,113.683,473.909,97.508z M219.074,54.876  c0-21.987,17.888-39.874,39.874-39.874s39.874,17.887,39.874,39.874c0,16.237-9.761,30.228-23.717,36.44  c-0.335,0.149-0.671,0.297-1.009,0.436c-0.304,0.125-0.611,0.245-0.919,0.363c-0.326,0.125-0.653,0.246-0.981,0.363  c-0.333,0.118-0.667,0.231-1.003,0.34c-0.301,0.098-0.604,0.19-0.907,0.28c-0.364,0.108-0.729,0.214-1.097,0.312  c-0.279,0.074-0.56,0.142-0.84,0.21c-0.388,0.094-0.777,0.188-1.17,0.271c-0.274,0.058-0.549,0.106-0.824,0.158  c-0.398,0.075-0.795,0.151-1.197,0.214c-0.294,0.046-0.591,0.081-0.887,0.12c-0.383,0.051-0.765,0.106-1.152,0.147  c-0.371,0.038-0.744,0.062-1.116,0.09c-0.316,0.024-0.63,0.056-0.949,0.072c-0.698,0.036-1.399,0.056-2.103,0.056  c-0.704,0-1.405-0.02-2.103-0.056c-0.318-0.017-0.632-0.048-0.948-0.072c-0.373-0.028-0.746-0.052-1.117-0.09  c-0.386-0.04-0.768-0.095-1.151-0.147c-0.296-0.039-0.593-0.074-0.887-0.12c-0.402-0.063-0.799-0.139-1.197-0.214  c-0.275-0.052-0.55-0.101-0.824-0.158c-0.393-0.083-0.781-0.176-1.17-0.271c-0.281-0.068-0.561-0.135-0.84-0.21  c-0.368-0.098-0.733-0.204-1.097-0.312c-0.303-0.09-0.606-0.183-0.908-0.28c-0.336-0.109-0.67-0.222-1.002-0.34  c-0.328-0.116-0.656-0.238-0.982-0.363c-0.308-0.118-0.615-0.238-0.92-0.363c-0.338-0.139-0.673-0.287-1.008-0.436  C228.835,85.104,219.074,71.113,219.074,54.876z M333.566,336.009c0,15.069-7.436,26.836-22.113,35.016  c-0.096-0.052-0.198-0.097-0.294-0.149c-1.072-0.571-2.169-1.134-3.323-1.678c-1.149-0.542-2.327-1.054-3.518-1.553  c-0.29-0.122-0.581-0.243-0.873-0.362c-1.187-0.485-2.386-0.956-3.608-1.403c-0.046-0.017-0.094-0.032-0.14-0.049  c-1.195-0.436-2.409-0.85-3.633-1.253c-0.305-0.1-0.611-0.201-0.917-0.299c-1.255-0.404-2.52-0.797-3.801-1.171  c-0.018-0.005-0.036-0.011-0.054-0.017c16.502-5.466,26.27-12.982,26.27-27.08c0-9.465-8.983-14.662-16.266-17.567  c0.081-0.01,0.161-0.022,0.242-0.032c1.811-0.236,3.62-0.478,5.426-0.725c0.116-0.016,0.232-0.032,0.348-0.048  c1.881-0.258,3.758-0.523,5.629-0.796c0.002,0,0.003,0,0.005-0.001c3.884-0.565,7.74-1.164,11.55-1.812  C330.593,320.835,333.566,327.728,333.566,336.009z M249.592,325.319c2.764-0.467,5.736-0.932,8.956-1.402  c0.357,0.052,0.715,0.104,1.066,0.156c0.311,0.046,0.622,0.092,0.929,0.138c0.519,0.078,1.029,0.156,1.537,0.234  c0.37,0.057,0.742,0.114,1.107,0.171c0.41,0.064,0.811,0.129,1.214,0.193c0.453,0.073,0.906,0.145,1.35,0.218  c0.257,0.042,0.508,0.084,0.762,0.127c0.589,0.098,1.176,0.196,1.749,0.294c0.012,0.002,0.024,0.004,0.036,0.006l-0.38,28.237  c-2.888,0.643-6.012,1.305-9.382,1.988c-3.044-0.617-5.89-1.217-8.561-1.804L249.592,325.319z M290.552,330.565  c9.126,2.936,11.43,5.033,12.001,5.829c-0.17,5.064-3.876,8.966-19.578,13.526l0.288-21.405  C285.922,329.174,288.346,329.854,290.552,330.565z M214.542,336.391c0.574-0.797,2.881-2.892,12-5.827  c2.511-0.808,5.225-1.549,8.087-2.244l0.294,21.849C220.119,345.95,214.771,341.981,214.542,336.391z M266.043,490.646  c-0.397,3.56-3.445,6.352-7.096,6.352c-3.741,0-6.849-2.931-7.12-6.617c2.194-0.765,4.441-1.574,6.721-2.419  c0.073,0.027,0.147,0.053,0.22,0.08c1.07,0.396,2.128,0.781,3.18,1.158c0.173,0.062,0.345,0.124,0.519,0.186  c1.164,0.416,2.315,0.822,3.45,1.215C265.959,490.616,266.001,490.631,266.043,490.646z M292.289,472.969  c1.441,0.683,2.805,1.325,4.077,1.918l0.001,0.001c2.244,1.047,3.267,3.482,2.377,5.665c-0.91,2.233-3.553,3.441-6.017,2.746  c-3.582-1.008-8.095-2.338-13.199-3.974c0.261-0.12,0.514-0.242,0.774-0.363c0.54-0.251,1.075-0.503,1.608-0.755  c0.661-0.313,1.315-0.626,1.965-0.941c0.524-0.254,1.046-0.508,1.562-0.763c0.72-0.356,1.429-0.714,2.135-1.072  c0.4-0.203,0.805-0.406,1.2-0.61C289.964,474.208,291.14,473.591,292.289,472.969z M192.994,414.249  c-0.041-10.618,4.522-19.384,13.574-26.106c0.021,0.009,0.043,0.017,0.064,0.026c4.62,1.98,9.46,3.66,14.433,5.126  c0.135,0.04,0.27,0.079,0.405,0.118c1.606,0.47,3.223,0.924,4.853,1.354c-1.219,0.485-2.395,0.992-3.523,1.524  c-12.205,5.756-13.826,12.28-13.804,17.901c0.034,8.857,7.563,16.789,30.607,30.731c0.047,0.03,0.089,0.066,0.137,0.095  c1.1,0.664,2.255,1.35,3.44,2.049c-0.02,0.011-0.041,0.022-0.061,0.033c-0.228,0.12-0.454,0.237-0.682,0.356  c-0.653,0.341-1.305,0.682-1.953,1.018c-0.318,0.165-0.633,0.327-0.949,0.49c-0.566,0.292-1.132,0.583-1.694,0.871  c-0.313,0.16-0.623,0.318-0.934,0.477c-0.583,0.298-1.164,0.592-1.741,0.884c-0.264,0.134-0.529,0.268-0.791,0.4  c-0.69,0.348-1.373,0.691-2.05,1.029c-0.137,0.068-0.276,0.139-0.413,0.207c-1.702,0.849-3.359,1.667-4.952,2.447  c-0.104,0.051-0.204,0.1-0.307,0.15c-0.424,0.208-0.836,0.407-1.251,0.609C203.951,443.102,193.052,429.054,192.994,414.249z   M267.25,403.573l-0.408,30.249c-0.092,0.055-0.18,0.107-0.273,0.162c-0.187,0.11-0.379,0.224-0.568,0.335  c-0.53,0.312-1.065,0.627-1.613,0.948c-0.165,0.096-0.334,0.195-0.501,0.292c-0.573,0.334-1.155,0.672-1.747,1.015  c-0.178,0.103-0.358,0.207-0.538,0.311c-0.575,0.332-1.161,0.669-1.756,1.009c-0.227,0.13-0.454,0.26-0.684,0.391  c-0.201,0.115-0.409,0.233-0.612,0.348c-0.459-0.262-0.925-0.526-1.373-0.783c-0.013-0.007-0.027-0.015-0.04-0.023  c-2.149-1.232-4.166-2.404-6.075-3.531l-0.416-30.901c0.095-0.021,0.19-0.042,0.285-0.063c1.148-0.252,2.299-0.499,3.449-0.74  c0.187-0.039,0.374-0.078,0.561-0.117c1.164-0.243,2.325-0.481,3.473-0.714c0.045-0.009,0.09-0.018,0.135-0.027  c0.019,0.004,0.039,0.008,0.058,0.012C261.459,402.326,264.38,402.933,267.25,403.573z M235.693,407.33l0.235,17.465  c-1.253-0.862-2.412-1.687-3.469-2.472c-7.314-5.439-8.34-7.928-8.461-8.306c-0.001-0.284-0.002-0.61-0.001-0.659  c0.006-0.014,0.787-1.414,5.203-3.497C231.122,408.955,233.313,408.116,235.693,407.33z M293.074,413.285L293.074,413.285  c0.021,0.115,0.022,0.447,0.022,0.732c-0.121,0.38-1.158,2.895-8.585,8.399c-0.791,0.586-1.635,1.193-2.535,1.821l0.224-16.642  c2.067,0.708,3.982,1.457,5.695,2.264C292.218,411.9,293.057,413.285,293.074,413.285z M132.438,275.451  c-7.474-7.782-11.08-17.258-10.721-28.165c0.819-24.882,10.707-42.461,56.292-47.374c1.801-0.194,3.597-0.29,5.38-0.29  c8.654,0,16.989,2.262,23.912,6.552c5.173,3.206,6.909,5.867,6.81,7.289c-0.048,0.683-1.095,6.951-22.841,16.533  c-14.803,6.523-26.149,6.208-34.435,5.979c-4.247-0.117-7.602-0.211-10.646,0.661c-5.205,1.491-8.295,5.545-8.479,11.12  c-0.301,9.12,2.564,20.736,27.608,29.695c13.209,4.726,29.813,7.72,47.182,10.144c-0.102,0.033-0.202,0.065-0.303,0.097  c-0.998,0.321-2.006,0.665-3.021,1.023c-0.214,0.075-0.429,0.149-0.641,0.225c-0.792,0.285-1.587,0.585-2.384,0.894  c-0.493,0.19-0.98,0.383-1.463,0.578c-0.128,0.052-0.257,0.107-0.385,0.16c-6.001,2.45-11.301,5.279-15.809,8.474  c-11.438-2.17-20.897-4.619-28.837-7.458C147.638,287.287,138.734,282.009,132.438,275.451z M486.246,145.139  c-0.2,0.758-4.094,3.651-18.35,2.849c-11.037-0.621-21.88-3.124-21.985-3.148c-2.786-0.649-5.703,0.341-7.516,2.557  c-0.049,0.061-5.175,6.151-13.827,10.241c-11.544,5.456-23.703,4.769-36.148-2.044c-2.58-1.413-5.766-1.173-8.119,0.591  c-0.16,0.12-16.161,11.958-31.119,8.847c-7.415-1.54-13.416-6.5-18.347-15.16c-1.369-2.405-3.895-3.791-6.521-3.791  c-0.94,0-1.894,0.177-2.811,0.549c-0.206,0.083-19.512,7.699-35.752-1.756l0.29-21.58c11.657-1.409,20.064-5.808,25.048-13.122  c1.118-1.641,2.315-3.51,3.701-5.673C327.434,84.755,350.964,48,393.698,62.31c33.36,11.171,57.576,33.13,69.043,45.225  C480.785,126.567,487.037,141.652,486.246,145.139z"/>
<g>
</g>
<g>
</g>
<g>
</g>
<g>
</g>
<g>
</g>
<g>
</g>
<g>
</g>
<g>
</g>
<g>
</g>
<g>
</g>
<g>
</g>
<g>
</g>
<g>
</g>
<g>
</g>
<g>
</g>
</svg>
