<svg xmlns="http://www.w3.org/2000/svg" viewBox="0 0 198.64 184.16"><defs><style>.cls-1{fill:none;stroke:#212683;stroke-miterlimit:10;stroke-width:6px;}.cls-2{fill:#1f268e;}.cls-3{fill:#212683;}</style></defs><title>Health</title><g id="Layer_2" data-name="Layer 2"><g id="Layer_1-2" data-name="Layer 1"><path class="cls-1" d="M178.63,115.5H160.83a.92.92,0,0,1-.92-.92V96.78a.92.92,0,0,0-.92-.92H136.1a.92.92,0,0,0-.92.92v17.79a.92.92,0,0,1-.92.92H116.46a.92.92,0,0,0-.92.92v22.89a.92.92,0,0,0,.92.92h17.79a.92.92,0,0,1,.92.92v17.79a.92.92,0,0,0,.92.92H159a.92.92,0,0,0,.92-.92V141.15a.92.92,0,0,1,.92-.92h17.79a.92.92,0,0,0,.92-.92V116.42A.92.92,0,0,0,178.63,115.5Z"/><path class="cls-1" d="M62.66,147l23.56,23.56a15.12,15.12,0,0,0,21.42,0l27.54-27.51"/><path class="cls-1" d="M39,123.34,32.61,117,21.89,106.26A45.48,45.48,0,1,1,86.22,41.94a15.14,15.14,0,0,0,21.42,0A45.48,45.48,0,0,1,172,106.26l-9.22,9.23"/><path class="cls-2" d="M14,5.45l-2.47,0,0-2.47a3,3,0,0,0-6.1.08l0,2.47L3,5.6a3,3,0,1,0,.08,6.09l2.47,0,0,2.47a3,3,0,0,0,6.1-.08l0-2.47,2.47,0A3,3,0,0,0,14,5.45Z"/><path class="cls-2" d="M195.55,5.45l-2.47,0L193,3a3,3,0,0,0-6.1.08l0,2.47-2.47,0a3,3,0,1,0,.08,6.09l2.47,0,0,2.47a3,3,0,0,0,6.1-.08l0-2.47,2.47,0a3,3,0,0,0-.08-6.09Z"/><path class="cls-2" d="M30.48,176.23l-1.68,0,0-1.68a2.07,2.07,0,0,0-4.13.06l0,1.68-1.68,0a2.07,2.07,0,1,0,.06,4.13l1.68,0,0,1.68a2.07,2.07,0,0,0,4.13-.06l0-1.68,1.68,0a2.07,2.07,0,0,0-.06-4.13Z"/><line class="cls-1" x1="48.79" y1="28.94" x2="48.79" y2="84.44"/><line class="cls-1" x1="48.79" y1="91.76" x2="48.79" y2="101.83"/><line class="cls-1" x1="73.99" y1="33.22" x2="73.99" y2="59.96"/><line class="cls-1" x1="144.93" y1="95.85" x2="144.93" y2="121.06"/><line class="cls-1" x1="144.93" y1="125.31" x2="144.93" y2="130.06"/><circle class="cls-3" cx="51.09" cy="135.43" r="3.29"/></g></g></svg>