<svg xmlns="http://www.w3.org/2000/svg" viewBox="0 0 204.32 205.05"><defs><style>.cls-1{fill:none;stroke:#212683;stroke-miterlimit:10;stroke-width:6px;}.cls-2{fill:#1f268e;}.cls-3{fill:#212683;}</style></defs><title>Drip</title><g id="Layer_2" data-name="Layer 2"><g id="Layer_1-2" data-name="Layer 1"><line class="cls-1" x1="3" y1="122.32" x2="27.89" y2="122.32"/><line class="cls-1" x1="3" y1="102.11" x2="17.92" y2="102.11"/><line class="cls-1" x1="3" y1="81.9" x2="27.89" y2="81.9"/><path class="cls-1" d="M3,61.42H62.43a5.56,5.56,0,0,1,5.32,7.2h0a5.56,5.56,0,0,0,5.32,7.2h28.49"/><path class="cls-1" d="M191.77,96"/><path class="cls-1" d="M191.77,80V96"/><rect class="cls-1" x="184.02" y="53.94" width="15.78" height="26.02" rx="6.51" ry="6.51"/><path class="cls-1" d="M191.77,54.22a2.62,2.62,0,0,0,0-.28,19.91,19.91,0,0,0-19.92-19.65h-.35a19.93,19.93,0,0,0-19.94,19.93v60.51"/><path class="cls-1" d="M151.55,148.42v33.7a19.93,19.93,0,0,1-19.93,19.93H72.21a19.93,19.93,0,0,1-19.93-19.93V163.85"/><path class="cls-1" d="M43.14,150H61.41a0,0,0,0,1,0,0v9.74a4.1,4.1,0,0,1-4.1,4.1H47.24a4.1,4.1,0,0,1-4.1-4.1V150A0,0,0,0,1,43.14,150Z"/><path class="cls-1" d="M52.28,16.38h0A10.7,10.7,0,0,1,63,27.09v10.7a0,0,0,0,1,0,0H41.57a0,0,0,0,1,0,0V27.09A10.7,10.7,0,0,1,52.28,16.38Z"/><path class="cls-1" d="M7,37.79H97.59a4,4,0,0,1,4,4v85.45A22.79,22.79,0,0,1,78.76,150h-53A22.79,22.79,0,0,1,3,127.21V41.76A4,4,0,0,1,7,37.79Z"/><path class="cls-2" d="M139.65,6.66l-2.93-.05.05-2.93a3.61,3.61,0,0,0-7.22-.13l-.05,2.93-2.93-.05a3.61,3.61,0,1,0-.13,7.22l2.93.05-.05,2.93a3.61,3.61,0,0,0,7.22.13l.05-2.93,2.93.05a3.61,3.61,0,0,0,.13-7.22Z"/><path class="cls-2" d="M200.78,153.44l-2.93-.05.05-2.93a3.61,3.61,0,0,0-7.22-.13l-.05,2.93-2.93-.05a3.61,3.61,0,1,0-.13,7.22l2.93.05-.05,2.93a3.61,3.61,0,0,0,7.22.13l.05-2.93,2.93.05a3.61,3.61,0,0,0,.13-7.22Z"/><path class="cls-2" d="M26.86,189.31l-2,0,0-2A2.45,2.45,0,0,0,20,187.2l0,2-2,0A2.45,2.45,0,1,0,17.9,194l2,0,0,2a2.45,2.45,0,0,0,4.89.09l0-2,2,0a2.45,2.45,0,0,0,.09-4.89Z"/><line class="cls-1" x1="79.51" y1="75.81" x2="79.51" y2="115.05"/><line class="cls-1" x1="79.51" y1="120.05" x2="79.51" y2="124.38"/><circle class="cls-3" cx="151.55" cy="131.58" r="3.29"/></g></g></svg>